# xmcd
#
# Track frame offsets:
#	150
#	13160
#	23687
#	38695
#	53163
#	66848
#	82018
#	96486
#	111575
#	128175
#	144559
#	156705
#
# Disc length: 2326 seconds
#
# Revision: 1
# Processed by: cddbd v1.4PL0 Copyright (c) Steve Scherf et al.
# Submitted via: EasyCDDAExtractor 5.0.6
#
DISCID=ad09140c
DTITLE=Chrystian and Ralf - Pagodes e modas de viola
DYEAR=2003
DGENRE=country
TTITLE0=Pagode em Brasília
TTITLE1=Ladrão de Mulher
TTITLE2=Ferreirinha
TTITLE3=Amargurado
TTITLE4=Berrante de Madalena
TTITLE5=O Ipê e o Prisioneiro
TTITLE6=Deusa do Araguaia
TTITLE7=Peão da Cidade
TTITLE8=A Morte do Carreiro
TTITLE9=A Lenda do Caipora
TTITLE10=O drama de um Boiadeiro
TTITLE11=Caminhoneiro
EXTD=
EXTT0=
EXTT1=
EXTT2=
EXTT3=
EXTT4=
EXTT5=
EXTT6=
EXTT7=
EXTT8=
EXTT9=
EXTT10=
EXTT11=
PLAYORDER=
